<?xml version="1.0" standalone="no"?>
<!DOCTYPE svg PUBLIC "-//W3C//DTD SVG 20010904//EN"
 "http://www.w3.org/TR/2001/REC-SVG-20010904/DTD/svg10.dtd">
<svg version="1.0" xmlns="http://www.w3.org/2000/svg"
 width="90px" height="90px" viewBox="0 0 225.000000 224.000000"
 preserveAspectRatio="xMidYMid meet">
<metadata>
Created by potrace 1.16, written by Peter Selinger 2001-2019
</metadata>
<g transform="translate(0.000000,224.000000) scale(0.100000,-0.100000)"
fill="#000000" stroke="none">
<path d="M910 2149 c-254 -54 -490 -209 -639 -419 -103 -146 -161 -296 -187
-481 -25 -176 4 -373 78 -544 79 -183 249 -378 417 -479 212 -127 473 -180
705 -142 464 77 806 418 881 880 91 562 -307 1105 -875 1196 -103 16 -273 11
-380 -11z m310 -59 c440 -47 784 -362 865 -795 23 -119 16 -307 -15 -420 -92
-339 -358 -604 -700 -697 -72 -19 -109 -23 -245 -23 -136 0 -172 4 -239 23
-408 117 -683 435 -728 843 -45 404 174 794 546 974 136 66 230 90 406 103 8
1 58 -3 110 -8z"/>
<path d="M1008 1999 c-197 -29 -356 -107 -496 -243 -410 -396 -345 -1063 132
-1375 43 -28 82 -51 86 -51 5 0 11 21 14 48 6 44 26 399 26 452 0 21 -10 30
-60 53 -71 33 -127 97 -161 184 -19 49 -23 77 -24 178 0 114 1 123 31 185 43
89 93 143 166 179 107 54 205 33 299 -64 95 -97 132 -220 111 -368 -23 -157
-98 -264 -216 -307 l-29 -11 8 -177 c10 -245 20 -411 27 -417 30 -30 319 -30
424 -1 l61 18 11 201 c7 111 12 230 12 265 0 62 -1 63 -32 77 -57 23 -114 71
-133 111 -16 34 -17 56 -12 199 6 141 27 380 42 473 5 28 10 32 35 32 l30 0 0
-301 0 -300 23 3 22 3 3 298 2 297 30 0 30 0 0 -295 0 -295 25 0 25 0 0 295 0
295 35 0 35 0 0 -301 0 -300 23 3 22 3 3 298 2 297 25 0 c17 0 25 -6 25 -17 0
-10 7 -73 14 -139 23 -191 39 -450 31 -500 -8 -59 -66 -123 -137 -154 l-51
-22 7 -91 c3 -51 9 -152 12 -225 4 -72 9 -132 11 -132 12 0 102 69 159 123
114 106 202 249 245 399 27 95 36 280 19 385 -75 466 -528 800 -992 732z"/>
<path d="M621 1359 c-51 -83 -53 -207 -6 -303 28 -56 86 -116 112 -116 18 0
17 5 -16 50 -16 22 -41 78 -57 126 -27 84 -27 89 -16 177 6 50 9 93 7 95 -2 2
-13 -11 -24 -29z"/>
</g>
</svg>
